<?xml version="1.0" encoding="UTF-8"?>
<svg width="15.894mm" height="43.726mm" version="1.1" viewBox="0 0 15.894 43.726" xmlns="http://www.w3.org/2000/svg" xmlns:cc="http://creativecommons.org/ns#" xmlns:dc="http://purl.org/dc/elements/1.1/" xmlns:rdf="http://www.w3.org/1999/02/22-rdf-syntax-ns#">
 <metadata>
  <rdf:RDF>
   <cc:Work rdf:about="">
    <dc:format>image/svg+xml</dc:format>
    <dc:type rdf:resource="http://purl.org/dc/dcmitype/StillImage"/>
    <dc:title/>
   </cc:Work>
  </rdf:RDF>
 </metadata>
 <g transform="translate(-56.688 -84.254)">
  <path d="m65.157 114.92c-3.2337-1.6886-2.4065-7.0065 1.8761-6.7395s4.9133 5.0599 2.4994 7.3146c-2.4139 2.2546-6.1638 1.3857-7.3817 0.58024s-3.4517-2.6705-3.2811-6.557c0.17063-3.8865 7.8566-9.021 10.339-15.539 1.7107-4.9753-0.50951-9.6674-2.5961-9.7281-1.4622-0.0607-2.4745 1.6786-3.1531 3.526-0.67864 1.8474-0.88555 3.6586-0.67242 5.8297 0.21313 2.171 5.1156 21.799 5.8127 27.677s-2.6246 5.9226-3.7007 6.0462c-1.0761 0.12359-2.1871-0.40117-2.5096-1.0932s-2.0416-2.4683-2.0416-2.4683c0.02712 1.8074 1.6464 4.2034 4.56 4.2076 2.0801 4e-3 5.6833-1.0246 4.5999-7.1961s-5.9662-24.676-5.8592-27.454 2.1902-6.0102 3.4941-5.9595 1.8111 2.073 0.32989 5.936-10.815 7.9068-10.784 15.75c0.03122 5.0521 4.028 7.3661 5.1268 7.9148 1.0988 0.54871 6.4253 1.7075 8.6461-0.78801 4.0571-3.9646 1.9928-11.119-3.6358-11.011-4.6737 0.14468-5.602 4.0439-5.465 5.4893 0.13693 1.4454 1.0438 3.4276 3.7967 4.2628z"/>
  <ellipse cx="62.886" cy="123.77" rx="2.5428" ry="2.5276"/>
 </g>
</svg>
